<?xml version="1.0" encoding="utf-8"?>
<svg version="1.1" xmlns:cc="http://creativecommons.org/ns#" xmlns:dc="http://purl.org/dc/elements/1.1/" xmlns:rdf="http://www.w3.org/1999/02/22-rdf-syntax-ns#" xmlns="http://www.w3.org/2000/svg" xmlns:xlink="http://www.w3.org/1999/xlink" x="0px" y="0px" viewBox="0 0 1024 768" xml:space="preserve">
<path fill="#e3d791" d="m539.3 234.39l-0.01 0.01c0-0.01 0.17 0.33 0.38 0.75s0.48 1.02 0.61 1.32c0.12 0.3 0.31 0.79 0.41 1.07 0.11 0.29 0.27 0.77 0.36 1.06 0.09 0.3 0.24 0.82 0.33 1.17s0.22 0.94 0.3 1.33c0.08 0.38 0.18 0.96 0.23 1.28s0.13 0.94 0.18 1.38 0.11 1.04 0.13 1.34c0.02 0.29 0.05 0.91 0.07 1.36s0.03 1.2 0.03 1.67c0 0.46-0.01 1.27-0.03 1.81-0.02 0.53-0.05 1.25-0.07 1.59-0.02 0.35-0.07 1.05-0.11 1.56-0.04 0.52-0.11 1.28-0.15 1.69-0.03 0.41-0.13 1.28-0.19 1.92-0.07 0.64-0.25 2.18-0.4 3.42-0.15 1.25-0.33 2.83-0.41 3.52-0.07 0.69-0.18 1.68-0.23 2.2-0.05 0.53-0.11 1.27-0.14 1.65-0.03 0.39-0.08 1.12-0.11 1.63-0.03 0.52-0.07 1.69-0.1 2.62-0.03 1.3-0.03 2.05 0 3.33 0.03 0.91 0.06 1.95 0.08 2.3 0.02 0.36 0.06 1.01 0.09 1.45 0.03 0.45 0.1 1.25 0.15 1.78 0.04 0.53 0.12 1.33 0.18 1.78 0.05 0.44 0.14 1.21 0.21 1.72 0.07 0.5 0.18 1.27 0.25 1.72 0.07 0.44 0.19 1.17 0.27 1.61 0.08 0.45 0.23 1.21 0.32 1.7 0.1 0.49 0.27 1.3 0.38 1.79 0.11 0.5 0.34 1.48 0.52 2.18s0.43 1.68 0.57 2.19c0.14 0.5 0.4 1.38 0.58 1.95 0.17 0.57 0.47 1.51 0.66 2.08s0.51 1.5 0.72 2.06c0.2 0.56 0.52 1.43 0.71 1.92 0.2 0.49 0.51 1.28 0.7 1.74 0.2 0.46 0.49 1.17 0.67 1.56 0.17 0.39 0.49 1.12 0.72 1.61 0.23 0.5 0.71 1.5 1.07 2.23s0.84 1.66 1.06 2.08c0.22 0.41 0.61 1.13 0.87 1.59 0.25 0.47 0.68 1.21 0.94 1.66s0.63 1.07 0.83 1.38c0.19 0.31 0.48 0.78 0.65 1.05s0.51 0.81 0.77 1.2c0.26 0.4 0.69 1.05 0.97 1.46 0.28 0.4 0.76 1.09 1.08 1.54 0.31 0.44 0.89 1.23 1.29 1.75 0.39 0.52 1.02 1.35 1.41 1.83 0.39 0.49 0.9 1.12 1.15 1.42s0.69 0.82 0.99 1.17c0.3 0.34 0.83 0.95 1.19 1.34 0.35 0.39 0.87 0.97 1.16 1.27 0.28 0.31 1.17 1.21 1.97 2.01s1.83 1.8 2.28 2.21c0.45 0.42 1.13 1.03 1.51 1.36 0.37 0.33 1.01 0.88 1.41 1.22 0.41 0.33 0.91 0.75 1.12 0.92 0.2 0.16 0.67 0.54 1.04 0.82 0.36 0.29 1.04 0.81 1.5 1.15 0.47 0.35 1.07 0.79 1.35 0.99 0.27 0.19 0.8 0.57 1.18 0.83 0.38 0.25 0.97 0.65 1.32 0.88s0.94 0.61 1.31 0.84c0.38 0.24 1.1 0.68 1.61 0.98 0.51 0.31 1.35 0.79 1.87 1.09 0.84 0.46 1.2 0.63 3.03 1.44 1.14 0.5 2.08 0.9 2.09 0.9 0-0.01-0.22-0.4-0.5-0.87s-0.78-1.36-1.12-1.97-0.82-1.5-1.07-1.96c-0.24-0.46-0.72-1.37-1.05-2.02-0.34-0.65-0.91-1.79-1.26-2.53-0.36-0.73-0.88-1.82-1.16-2.42-0.28-0.59-0.69-1.49-0.92-1.99-0.22-0.51-0.55-1.23-0.72-1.62-0.16-0.38-0.49-1.17-0.73-1.75s-0.76-1.89-1.16-2.92c-0.41-1.03-0.83-2.11-0.94-2.39l-0.21-0.52-1.07-0.36c-0.59-0.2-1.32-0.46-1.62-0.57-0.29-0.12-0.76-0.31-1.03-0.42-0.28-0.12-0.87-0.39-1.33-0.61-0.45-0.22-1.13-0.55-1.49-0.75-0.37-0.19-0.88-0.48-1.15-0.63-0.26-0.15-0.82-0.48-1.24-0.72-0.41-0.25-1.63-1-2.7-1.67-1.08-0.67-2.22-1.38-2.54-1.58-0.32-0.19-0.88-0.52-1.24-0.72s-0.93-0.52-1.26-0.7c-0.34-0.17-0.87-0.44-1.19-0.59-0.31-0.15-0.78-0.36-1.04-0.47s-0.7-0.28-0.97-0.38-0.62-0.21-0.78-0.26-0.43-0.14-0.61-0.19l-0.32-0.09 0.27 0.02c0.15 0.01 0.43 0.05 0.61 0.09s0.55 0.15 0.81 0.24c0.27 0.08 0.73 0.27 1.04 0.4s1.12 0.52 1.8 0.86 1.74 0.89 2.35 1.22 1.89 1.03 2.83 1.56c0.95 0.52 2.14 1.17 2.66 1.45 0.51 0.27 1.39 0.74 1.95 1.02 0.56 0.29 1.36 0.68 1.76 0.87s0.98 0.45 1.27 0.58c0.3 0.13 0.77 0.33 1.06 0.44 0.29 0.12 0.73 0.28 0.99 0.37 0.25 0.09 0.65 0.22 0.88 0.29 0.22 0.07 0.51 0.15 0.64 0.19 0.12 0.03 0.23 0.05 0.24 0.04s-0.06-0.26-0.17-0.55c-0.1-0.3-0.31-0.88-0.45-1.3-0.15-0.43-0.51-1.49-0.81-2.35-0.29-0.87-0.79-2.37-1.11-3.34-0.32-0.96-0.86-2.66-1.21-3.76-0.36-1.11-0.97-3.05-1.36-4.31-0.4-1.26-1.12-3.57-1.6-5.13-0.49-1.55-1.19-3.8-1.56-4.98-0.37-1.19-0.77-2.45-0.88-2.82-0.11-0.36-0.38-1.21-0.59-1.88-0.22-0.67-0.4-1.24-0.4-1.26s-0.11-0.07-0.26-0.12c-0.14-0.04-0.7-0.22-1.24-0.4-0.55-0.17-1.35-0.46-1.78-0.64-0.43-0.17-0.96-0.39-1.16-0.48-0.21-0.1-0.8-0.38-1.31-0.63-0.52-0.26-1.27-0.65-1.67-0.87-0.41-0.23-1.13-0.65-1.6-0.93s-1.66-1.01-2.63-1.62c-0.98-0.61-2.11-1.31-2.51-1.56-0.41-0.24-1.03-0.61-1.38-0.81-0.36-0.2-0.93-0.51-1.27-0.69-0.35-0.19-0.9-0.46-1.24-0.62-0.33-0.16-0.79-0.37-1.02-0.46-0.23-0.1-0.64-0.26-0.9-0.36-0.27-0.1-0.68-0.23-0.91-0.3-0.24-0.08-0.53-0.16-0.66-0.19s-0.22-0.07-0.21-0.08 0.16 0.01 0.33 0.03 0.45 0.07 0.62 0.11 0.46 0.12 0.65 0.18c0.18 0.06 0.53 0.19 0.77 0.29 0.24 0.09 0.66 0.27 0.94 0.4s1.02 0.5 1.65 0.81c0.63 0.32 1.52 0.78 1.98 1.03s1.8 0.99 2.98 1.64c1.17 0.65 2.59 1.43 3.15 1.73 0.57 0.31 1.63 0.86 2.37 1.23s1.67 0.81 2.06 0.99c0.4 0.17 0.98 0.42 1.3 0.54 0.32 0.13 0.79 0.3 1.05 0.39 0.25 0.09 0.69 0.22 0.97 0.3 0.27 0.08 0.5 0.13 0.5 0.12 0-0.02-0.12-0.38-0.26-0.82-0.15-0.43-0.45-1.29-0.66-1.91-0.22-0.62-0.54-1.53-0.72-2.03-0.18-0.49-0.49-1.36-0.7-1.92-0.21-0.57-0.59-1.56-0.83-2.2-0.25-0.64-0.66-1.7-0.92-2.34-0.26-0.65-0.69-1.69-0.96-2.32-0.26-0.63-0.7-1.65-0.97-2.26-0.28-0.61-0.66-1.47-0.86-1.9-0.2-0.44-0.69-1.44-1.08-2.23-0.39-0.78-0.89-1.77-1.11-2.18-0.22-0.42-0.6-1.11-0.85-1.55-0.24-0.44-0.65-1.14-0.89-1.56-0.25-0.42-0.64-1.06-0.87-1.43-0.23-0.36-0.53-0.83-0.66-1.04l-0.25-0.38 0.42 0.44c0.24 0.23 0.6 0.64 0.82 0.89 0.21 0.26 0.57 0.72 0.8 1.02 0.23 0.31 0.66 0.92 0.96 1.37s0.76 1.17 1.01 1.6c0.26 0.43 0.67 1.14 0.9 1.57 0.24 0.43 0.7 1.31 1.03 1.95 0.32 0.64 0.76 1.55 0.98 2.01 0.22 0.47 0.56 1.22 0.77 1.69 0.2 0.46 0.57 1.29 0.8 1.85 0.24 0.55 0.62 1.46 0.86 2.02 0.23 0.56 0.58 1.44 0.79 1.96 0.2 0.51 0.56 1.44 0.8 2.08 0.24 0.63 0.69 1.8 0.99 2.61s0.88 2.38 1.28 3.49c0.41 1.11 1.37 3.76 2.15 5.9 0.77 2.13 1.7 4.72 2.08 5.75 0.37 1.02 0.95 2.59 1.27 3.48 0.33 0.88 0.61 1.62 0.61 1.63 0.01 0.01 0.07-0.04 0.13-0.12 0.07-0.07 0.29-0.32 0.5-0.57 0.21-0.24 0.55-0.67 0.76-0.94s0.52-0.69 0.7-0.93c0.17-0.24 0.46-0.65 0.64-0.91 0.17-0.25 0.55-0.81 0.82-1.23 0.28-0.43 0.77-1.2 1.1-1.72 0.32-0.53 1.21-1.98 1.97-3.25 0.76-1.26 1.51-2.51 1.68-2.78 0.16-0.26 0.63-1.01 1.05-1.66 0.41-0.66 0.87-1.36 1-1.56 0.14-0.21 0.36-0.53 0.49-0.7 0.13-0.18 0.36-0.49 0.52-0.69 0.16-0.19 0.44-0.51 0.63-0.71 0.19-0.19 0.44-0.43 0.56-0.52s0.24-0.18 0.26-0.2c0.03-0.02-0.08 0.12-0.25 0.29-0.17 0.18-0.44 0.49-0.6 0.68-0.17 0.2-0.49 0.61-0.72 0.91-0.23 0.31-0.56 0.76-0.73 1.01-0.17 0.24-0.49 0.74-0.71 1.09-0.23 0.36-0.58 0.93-0.79 1.27-0.21 0.35-0.6 1.01-0.87 1.47-0.26 0.47-0.63 1.12-0.82 1.46-0.19 0.33-0.67 1.23-1.09 1.99-0.41 0.76-0.93 1.72-1.17 2.15-0.24 0.42-0.65 1.13-0.92 1.58-0.26 0.44-0.66 1.07-0.87 1.39-0.22 0.32-0.63 0.9-0.92 1.29s-0.88 1.16-1.31 1.71c-0.53 0.68-0.77 1.02-0.76 1.05 0.02 0.04 0.22 0.59 0.45 1.23s0.68 1.86 1 2.72c0.31 0.86 0.77 2.1 1.02 2.76 0.24 0.66 0.71 1.91 1.04 2.77 0.33 0.85 0.83 2.18 1.13 2.94s0.8 2.02 1.11 2.81c0.32 0.79 0.75 1.86 0.96 2.37s0.59 1.42 0.84 2.02 0.71 1.67 1.02 2.37c0.3 0.7 0.74 1.69 0.96 2.19 0.23 0.5 0.53 1.16 0.66 1.45 0.14 0.3 0.41 0.86 0.59 1.26 0.19 0.39 0.7 1.45 1.15 2.34 0.44 0.9 0.98 1.97 1.2 2.37 0.21 0.41 0.58 1.11 0.83 1.56 0.25 0.46 0.65 1.17 0.88 1.58 0.24 0.41 0.61 1.05 0.83 1.42 0.22 0.36 0.59 0.98 0.84 1.38 0.25 0.39 0.71 1.11 1.03 1.6 0.33 0.49 0.61 0.89 0.62 0.91 0.02 0.01 0.08-0.21 0.13-0.48s0.24-1.26 0.42-2.19c0.17-0.94 0.48-2.58 0.68-3.65 0.19-1.06 0.45-2.48 0.57-3.16s0.34-1.99 0.5-2.92c0.16-0.94 0.4-2.43 0.54-3.33 0.13-0.89 0.33-2.19 0.43-2.88s0.26-1.87 0.36-2.62c0.09-0.75 0.25-2 0.34-2.78s0.21-1.91 0.27-2.51 0.14-1.57 0.19-2.15c0.05-0.59 0.13-1.55 0.17-2.14s0.09-1.55 0.12-2.13c0.03-0.59 0.07-1.83 0.09-2.77 0.03-1.27 0.04-2.12 0.01-3.28-0.03-0.87-0.06-1.86-0.08-2.2-0.02-0.35-0.06-0.94-0.09-1.33-0.03-0.38-0.1-1.08-0.15-1.54s-0.14-1.23-0.21-1.7-0.18-1.14-0.24-1.49c-0.05-0.34-0.17-0.96-0.25-1.36-0.08-0.41-0.21-1.07-0.3-1.47-0.09-0.41-0.28-1.19-0.41-1.74-0.14-0.55-0.36-1.36-0.49-1.81s-0.34-1.18-0.48-1.62-0.38-1.15-0.52-1.57c-0.15-0.43-0.37-1.05-0.5-1.39-0.12-0.33-0.37-0.97-0.55-1.41-0.18-0.45-0.45-1.11-0.61-1.48s-0.45-1.02-0.64-1.44-0.59-1.23-0.88-1.82c-0.29-0.58-0.73-1.44-0.99-1.9-0.25-0.46-0.62-1.11-0.81-1.45-0.2-0.33-0.57-0.96-0.84-1.4-0.27-0.43-0.73-1.16-1.03-1.61-0.3-0.46-0.76-1.13-1.02-1.51-0.26-0.37-0.75-1.05-1.09-1.51-0.34-0.45-0.85-1.11-1.12-1.45-0.28-0.35-0.72-0.89-0.99-1.21-0.26-0.31-0.64-0.76-0.85-0.99-0.21-0.24-0.62-0.7-0.91-1.02-0.3-0.33-0.99-1.05-1.53-1.6s-1.31-1.3-1.7-1.66c-0.4-0.37-0.95-0.88-1.22-1.12-0.28-0.25-0.68-0.6-0.9-0.79s-0.64-0.55-0.95-0.81-0.89-0.73-1.29-1.06c-0.4-0.32-1.03-0.82-1.38-1.09-0.36-0.28-1.1-0.84-1.65-1.26-0.55-0.41-1.3-0.97-1.67-1.23-0.36-0.27-1.12-0.81-1.67-1.21-0.56-0.4-2.49-1.76-4.31-3.03-1.8-1.28-3.71-2.61-4.22-2.97-0.51-0.37-1.25-0.9-1.65-1.19-0.39-0.28-1.22-0.89-1.83-1.35-0.61-0.45-1.45-1.09-1.86-1.41-0.42-0.33-1.01-0.79-1.31-1.04-0.31-0.25-0.85-0.69-1.2-0.99-0.36-0.3-0.98-0.83-1.38-1.18-0.41-0.36-0.95-0.84-1.2-1.08-0.26-0.24-0.78-0.73-1.16-1.09-0.39-0.37-1-0.98-1.37-1.37-0.37-0.38-0.84-0.88-1.04-1.11-0.21-0.23-0.62-0.69-0.9-1.02-0.29-0.34-0.73-0.87-0.98-1.18-0.26-0.32-0.67-0.85-0.92-1.19-0.25-0.33-0.58-0.79-0.74-1.02s-0.44-0.64-0.62-0.91c-0.18-0.28-0.34-0.51-0.34-0.52zm-264.49 121.29l-0.67 0.01c-0.89 0.03-1.79 0.09-2.7 0.19-2.05 0.22-4.18 0.61-6.33 1.32-1.63 0.54-3.27 1.25-4.91 2.26-1.88 1.17-3.73 2.8-5.14 4.88-1.43 2.07-2.32 4.54-2.61 6.87-0.17 1.16-0.2 2.3-0.14 3.39 0.05 1.08 0.2 2.23 0.49 3.4 0.53 2.32 1.77 4.7 3.37 6.5 1.6 1.82 3.43 3.09 5.15 4.04 1.73 0.95 3.4 1.61 5 2.16 3.19 1.1 6.15 1.79 8.88 2.56 2.71 0.75 5.21 1.67 7 2.78 0.89 0.53 1.58 1.1 1.98 1.62 0.44 0.51 0.57 0.93 0.72 1.38 0.11 0.47 0.23 1.04 0.21 1.84 0 0.4-0.02 0.55-0.07 0.79-0.05 0.2-0.1 0.39-0.19 0.57-0.18 0.37-0.45 0.77-0.93 1.2-0.47 0.43-1.14 0.88-1.94 1.26-1.6 0.78-3.7 1.27-5.86 1.43-0.54 0.05-1.09 0.06-1.64 0.07-0.47-0.01-0.94-0.02-1.4-0.08-0.93-0.09-1.82-0.31-2.67-0.6-1.68-0.6-3.13-1.6-4.11-2.73-0.98-1.14-1.43-2.32-1.5-3.56h-13.93c-0.03 2.3 0.36 4.64 1.17 6.79 0.8 2.15 1.95 4.11 3.34 5.8 2.77 3.41 6.4 5.74 10.22 7.12 1.92 0.68 3.9 1.15 5.89 1.36 1 0.12 1.99 0.16 2.99 0.18 0.92-0.01 1.83-0.03 2.75-0.11 3.68-0.3 7.4-1.17 11.06-3 1.82-0.92 3.64-2.11 5.3-3.69 1.65-1.57 3.15-3.59 4.13-5.93 0.5-1.16 0.85-2.39 1.07-3.62 0.11-0.62 0.17-1.23 0.22-1.85 0.02-0.6 0.05-1.24 0.01-1.75-0.08-2.12-0.49-4.48-1.5-6.74-0.98-2.25-2.57-4.29-4.29-5.76-1.73-1.5-3.54-2.53-5.26-3.32-3.46-1.55-6.62-2.28-9.55-3.11-2.93-0.79-5.67-1.5-8.02-2.36-0.41-0.15-0.79-0.31-1.17-0.47-0.12-0.05-0.23-0.1-0.35-0.15-0.31-0.14-0.61-0.29-0.89-0.43-0.04-0.03-0.08-0.05-0.12-0.07-0.17-0.09-0.34-0.18-0.5-0.27-0.34-0.21-0.63-0.41-0.88-0.62-0.35-0.28-0.63-0.56-0.81-0.81-0.3-0.43-0.44-0.74-0.52-1.28-0.1-0.48-0.1-1.43 0.05-1.95 0.13-0.58 0.34-0.91 0.62-1.23 0.27-0.33 0.68-0.66 1.32-0.99 1.24-0.7 3.28-1.21 5.5-1.33 0.55-0.03 1.12-0.04 1.7-0.03h0.42l0.34 0.02c0.23 0 0.46 0.03 0.68 0.05 0.9 0.1 1.77 0.3 2.59 0.6 1.63 0.61 3.03 1.61 3.97 2.76 0.92 1.18 1.42 2.4 1.46 3.71h13.93c0.07-4.57-1.62-9.15-4.39-12.52-2.74-3.43-6.38-5.84-10.28-7.18-1.95-0.68-3.96-1.1-5.98-1.28-0.51-0.03-1.02-0.07-1.52-0.08l-0.76-0.01zm40.1 1.13v64.8h14.38v-21.56h16.82c12.45 0 22.58-9.17 22.58-21.62 0-10.81-7.63-19.14-17.79-21.15-1.54-0.3-3.15-0.47-4.79-0.47h-16.82-14.38zm136.01 0v64.8h14.38v-21.56h9.54l17.08 21.56h16.3l-18.13-22.89c8.53-2.97 14.61-10.64 14.61-20.29 0-10.81-7.63-19.14-17.79-21.15-1.54-0.3-3.14-0.47-4.79-0.47h-16.82-14.38zm69.27 0v64.8h14.38v-32.69-32.11h-14.38zm14.38 32.11l9.42 11.01 18.54 21.68h17.26l-27.95-32.69 22.87-32.11h-17.26l-15.03 21.09-7.85 11.02zm56.03-32.11v64.8h14.39 30.16v-12.47h-30.16v-13.5h25.15v-12.47h-25.15v-13.89h30.16v-12.47h-30.16-14.39zm59.06 0v64.8h14.38 31.35v-12.47h-31.35v-52.33h-14.38zm-245.46 0.09l-8.13 14.63-27.86 50.17h17.26l19.23-34.63 19.24 34.63h16.25l-27.36-49.27-8.63-15.53zm332.94 0l-8.13 14.63-27.86 50.17h17.26l19.23-34.63 19.24 34.63h16.26l-27.36-49.27-8.64-15.53zm-407.85 12.38h16.82c4.52 0 8.19 4.63 8.19 9.15 0 3.86-2.68 7.8-6.28 8.86-0.61 0.19-1.25 0.29-1.91 0.29h-16.82v-18.3zm136.01 0h16.82c4.52 0 8.2 4.63 8.2 9.15 0 3.86-2.69 7.8-6.28 8.86-0.62 0.19-1.26 0.29-1.92 0.29h-16.82v-18.3zm219.46 60.17l-0.68 0.02c-0.89 0.03-1.78 0.09-2.69 0.18-2.05 0.23-4.18 0.61-6.34 1.32-1.62 0.54-3.27 1.26-4.91 2.26-1.88 1.17-3.72 2.8-5.13 4.89-1.43 2.06-2.32 4.53-2.62 6.86-0.16 1.17-0.19 2.3-0.13 3.39 0.04 1.09 0.2 2.24 0.48 3.4 0.54 2.33 1.78 4.7 3.38 6.51 1.59 1.82 3.43 3.08 5.15 4.03 1.73 0.95 3.4 1.61 5 2.17 3.19 1.09 6.15 1.79 8.88 2.56 2.71 0.74 5.21 1.67 7 2.77 0.88 0.54 1.57 1.11 1.98 1.62 0.43 0.51 0.57 0.94 0.72 1.38 0.11 0.47 0.22 1.04 0.2 1.85 0 0.4-0.02 0.55-0.07 0.78-0.05 0.21-0.09 0.4-0.19 0.58-0.17 0.36-0.44 0.76-0.92 1.19-0.48 0.44-1.14 0.88-1.94 1.26-1.61 0.78-3.71 1.28-5.87 1.43-0.53 0.05-1.08 0.06-1.63 0.07-0.47-0.01-0.94-0.02-1.4-0.08-0.93-0.09-1.82-0.31-2.67-0.6-1.69-0.6-3.14-1.6-4.11-2.72-0.98-1.15-1.44-2.33-1.5-3.57h-13.94c-0.02 2.31 0.37 4.65 1.17 6.79 0.8 2.15 1.96 4.12 3.34 5.81 2.77 3.4 6.4 5.74 10.23 7.12 1.92 0.67 3.9 1.14 5.89 1.36 0.99 0.12 1.99 0.16 2.98 0.17 0.92-0.01 1.84-0.03 2.76-0.11 3.68-0.3 7.4-1.17 11.06-3 1.82-0.92 3.63-2.1 5.29-3.69 1.66-1.57 3.15-3.59 4.14-5.92 0.5-1.16 0.84-2.4 1.06-3.63 0.12-0.62 0.17-1.23 0.23-1.85 0.02-0.6 0.04-1.24 0.01-1.75-0.08-2.12-0.49-4.48-1.5-6.73-0.99-2.26-2.57-4.29-4.29-5.77-1.73-1.5-3.54-2.52-5.26-3.32-3.46-1.54-6.63-2.28-9.56-3.1-2.92-0.8-5.67-1.5-8.01-2.36-0.41-0.16-0.8-0.32-1.17-0.48-0.12-0.05-0.24-0.1-0.35-0.15-0.32-0.14-0.62-0.28-0.9-0.43-0.03-0.02-0.07-0.04-0.11-0.06-0.17-0.09-0.34-0.19-0.5-0.28-0.35-0.2-0.63-0.41-0.88-0.61-0.36-0.29-0.63-0.57-0.82-0.81-0.29-0.43-0.43-0.74-0.52-1.29-0.09-0.48-0.09-1.42 0.06-1.95 0.13-0.57 0.33-0.91 0.61-1.23s0.69-0.66 1.33-0.99c1.24-0.69 3.28-1.2 5.49-1.32 0.56-0.03 1.13-0.05 1.7-0.04l0.42 0.01 0.35 0.01c0.23 0.01 0.45 0.03 0.68 0.05 0.9 0.1 1.77 0.3 2.58 0.61 1.63 0.61 3.04 1.6 3.97 2.76 0.92 1.18 1.43 2.39 1.46 3.71h13.94c0.06-4.57-1.63-9.15-4.4-12.53-2.73-3.43-6.38-5.83-10.27-7.18-1.95-0.68-3.97-1.09-5.99-1.27-0.5-0.04-1.01-0.08-1.51-0.09l-0.76-0.01zm-371.49 1.14v12.46h18.99v52.33h14.38v-52.33h18.99v-12.46h-18.99-14.38-18.99zm132.09 0v64.79h14.38 31.35v-12.46h-31.35v-52.33h-14.38zm57.33 0v64.79h14.39v-32.69-32.1h-14.39zm14.39 32.1l9.41 11.01 18.54 21.68h17.26l-27.95-32.69 22.87-32.1h-17.26l-15.03 21.09-7.84 11.01zm56.02-32.1v64.79h14.39v-64.79h-14.39zm31.18 0v64.8h14.39 30.17v-12.47h-30.17v-13.5h25.16v-12.47h-25.16v-13.9h30.17v-12.46h-30.17-14.39zm-205.55 0.08l-8.14 14.64-27.86 50.16h17.27l19.22-34.63 19.24 34.63h16.26l-27.36-49.26-8.63-15.54zm4.49 85.42c-5.62 0-9.18 3.96-9.18 8.77 0 2.4 0.75 4.6 2.4 6.19s4.18 2.56 7.72 2.56c3.51 0 6.34-1.42 6.34-1.42l0.19-0.09-0.64-1.45-0.22 0.18c-1.04 0.82-3.64 1.51-5.38 1.51-2.74 0-4.87-0.84-6.31-2.19s-2.21-3.21-2.21-5.29c0-2.34 0.6-4.2 1.85-5.49 1.24-1.28 3.14-2.01 5.83-2.01 0.9 0 2.9 0.07 5.28 1.11l0.23 0.1 0.51-1.54-0.23-0.07c-3.11-0.84-4.45-0.87-6.18-0.87zm126.51 0c-2.16 0-3.59 0.65-4.47 1.52-0.88 0.86-1.2 1.92-1.2 2.74 0 1.31 0.58 2.29 1.42 3.04s1.94 1.3 3.02 1.82c1.09 0.53 2.15 1.03 2.93 1.66 0.78 0.62 1.27 1.35 1.27 2.38 0 0.91-0.38 1.67-1.06 2.21-0.68 0.55-1.67 0.88-2.89 0.88-1.74 0-2.73-0.58-3.3-1.16-0.57-0.57-0.71-1.12-0.71-1.12l-0.03-0.13-0.57-0.14-0.34 2.49 0.1 0.08s0.4 0.32 1.15 0.63 1.86 0.62 3.33 0.62c1.96 0 3.5-0.52 4.54-1.41 1.05-0.88 1.59-2.13 1.59-3.52 0-1.26-0.59-2.18-1.45-2.88s-1.97-1.21-3.07-1.71-2.18-0.99-2.97-1.63-1.29-1.39-1.29-2.49c0-0.88 0.53-1.52 1.26-1.96 0.74-0.44 1.68-0.65 2.38-0.65 1.85 0 3.59 1.16 3.59 1.16l0.11 0.07 0.37-0.18 0.15-1.38-0.13-0.07s-1.58-0.87-3.73-0.87zm38.44 0c-5.62 0-9.17 3.96-9.17 8.77 0 2.4 0.74 4.6 2.39 6.19s4.19 2.56 7.72 2.56c3.52 0 6.34-1.42 6.34-1.42l0.19-0.09-0.63-1.45-0.23 0.18c-1.04 0.82-3.64 1.51-5.38 1.51-2.74 0-4.86-0.84-6.3-2.19-1.45-1.35-2.21-3.21-2.21-5.29 0-2.34 0.6-4.2 1.84-5.49 1.24-1.28 3.15-2.01 5.83-2.01 0.9 0 2.9 0.07 5.28 1.11l0.23 0.1 0.51-1.54-0.23-0.07c-3.11-0.84-4.45-0.87-6.18-0.87zm-21.5 0.05c-5.29 0-8.7 3.91-8.7 8.72 0 2.4 0.8 4.59 2.29 6.18 1.5 1.59 3.68 2.57 6.41 2.57 4.83 0 8.7-3.92 8.7-8.75 0-2.4-0.73-4.58-2.19-6.16-1.46-1.59-3.65-2.56-6.51-2.56zm-132.83 0.12l0.1 0.3s0.35 0.97 0.35 2.57v11.52c0 1.62-0.34 2.56-0.34 2.56l-0.12 0.3h2.76l-0.11-0.3s-0.37-0.97-0.37-2.56v-4.44h1.86c0.39 0 0.84-0.04 1.31-0.1 0.39 0.54 1.48 2.06 2.75 3.64 0.65 0.82 1.33 1.63 1.96 2.29 0.63 0.67 1.2 1.2 1.68 1.45l0.05 0.02h3.06v-0.55l-0.2-0.02s-0.11-0.01-0.4-0.14c-0.3-0.13-0.76-0.38-1.39-0.87-1.22-0.95-3.1-2.85-5.61-6.39 0.88-0.32 1.76-0.74 2.42-1.44 0.73-0.77 1.22-1.81 1.22-3.15 0-2.07-0.92-3.29-2.1-3.93-1.18-0.65-2.61-0.76-3.69-0.76h-5.19zm17.95 0l0.11 0.3s0.34 0.94 0.34 2.57v11.52c0 1.6-0.34 2.56-0.34 2.56l-0.11 0.3h10.64l0.47-1.74-0.33 0.04s-1.5 0.21-3.33 0.34c-1.78 0.12-3.84 0.15-5.18-0.11v-7.02c0.21 0 2.79-0.07 5.73 0.16l0.19 0.02 0.45-1.58-0.31 0.01s-3.85 0.17-6.06 0.12v-6.02c1.34-0.26 3.22-0.28 4.81-0.21 1.65 0.07 2.96 0.22 2.96 0.22l0.19 0.02 0.42-1.5h-10.65zm21.02 0l-0.52 1.17-5.83 13.12c-0.71 1.61-1.53 2.59-1.53 2.59l0.18 0.37h2.26l-0.05-0.27s-0.04-0.21 0-0.64 0.17-1.07 0.54-1.86l1.45-3.25h7.14l1.39 3.24c0.33 0.8 0.45 1.43 0.49 1.87 0.04 0.43 0 0.64 0 0.64l-0.05 0.27h2.62l0.18-0.36s-0.78-0.98-1.44-2.59l-5.76-13.59-0.3-0.71h-0.77zm7.58 0l0.43 1.52 0.2-0.04s2.78-0.53 5.44-0.01v12.92c0 1.62-0.36 2.56-0.36 2.56l-0.12 0.3h2.76l-0.11-0.3s-0.35-0.96-0.35-2.56v-12.92c2.62-0.52 5.42 0.01 5.42 0.01l0.2 0.04 0.06-0.2 0.4-1.32h-13.97zm16.91 0l0.11 0.3s0.35 0.97 0.35 2.57v11.52c0 1.6-0.35 2.56-0.35 2.56l-0.11 0.3h2.76l-0.11-0.3s-0.37-0.97-0.37-2.56v-11.52c0-1.6 0.37-2.56 0.37-2.56l0.11-0.31h-2.76zm6.08 0l-0.18 0.36s0.75 0.98 1.41 2.59l5.52 13.75 0.19 0.55h0.99l0.39-1.03 5.33-13.27c0.66-1.63 1.41-2.58 1.41-2.59l-0.18-0.36h-1.97l-0.01 0.22s-0.02 0.96-0.63 2.56l-4.64 11.53-4.61-11.53h-0.01c-0.66-1.6-0.67-2.56-0.67-2.56l-0.01-0.22h-2.33zm18.2 0l0.12 0.3s0.34 0.94 0.34 2.57v11.52c0 1.6-0.35 2.56-0.35 2.56l-0.1 0.3h10.64l0.47-1.74-0.34 0.04s-1.49 0.21-3.33 0.34c-1.77 0.12-3.83 0.15-5.17-0.11v-7.02c0.2 0 2.79-0.07 5.73 0.16l0.19 0.02 0.44-1.58-0.31 0.01s-3.84 0.17-6.05 0.12v-6.02c1.33-0.26 3.21-0.28 4.81-0.21 1.65 0.07 2.96 0.22 2.95 0.22l0.19 0.02 0.42-1.5h-10.65zm77.21 0l0.11 0.3s0.34 0.97 0.34 2.57v11.52c0 1.6-0.34 2.56-0.34 2.56l-0.11 0.3h2.76l-0.12-0.3s-0.37-0.97-0.37-2.56v-11.52c0-1.6 0.37-2.56 0.37-2.56l0.12-0.31h-2.76zm7.22 0l0.11 0.3s0.34 0.94 0.34 2.57v11.52c0 1.6-0.34 2.56-0.34 2.56l-0.11 0.3h10.64l0.47-1.74-0.33 0.04s-1.5 0.21-3.33 0.34c-1.78 0.12-3.84 0.15-5.18-0.11v-7.02c0.2 0 2.79-0.07 5.73 0.16l0.19 0.02 0.44-1.58-0.31 0.01s-3.84 0.17-6.05 0.12v-6.02c1.33-0.26 3.22-0.28 4.81-0.21 1.65 0.07 2.96 0.22 2.96 0.22l0.19 0.02 0.42-1.5h-10.65zm12.9 0l0.42 1.52 0.21-0.04s2.78-0.53 5.44-0.01v12.92c0 1.62-0.37 2.56-0.37 2.56l-0.12 0.3h2.76l-0.11-0.3s-0.34-0.96-0.34-2.56v-12.92c2.62-0.52 5.42 0.01 5.42 0.01l0.2 0.04 0.06-0.2 0.4-1.32h-13.97zm15.65 0l-0.17 0.38s0.97 0.99 1.94 2.6l4.48 7.37v4.04c0 1.6-0.35 2.56-0.35 2.56l-0.1 0.3h2.75l-0.11-0.3s-0.35-0.94-0.35-2.56v-4.04l5.05-7.36c1.12-1.61 2.16-2.6 2.16-2.6l-0.16-0.39h-1.9l-0.04 0.16s-0.28 0.97-1.41 2.58l-4.37 6.36-3.87-6.35c-1-1.61-1.22-2.58-1.22-2.58l-0.04-0.17h-2.29zm-67.89 1.1c2.15 0 3.84 0.83 5 2.18 1.17 1.35 1.81 3.23 1.81 5.32 0 2.1-0.57 3.98-1.7 5.34-1.13 1.35-2.81 2.19-5.11 2.19-2.09 0-3.78-0.84-4.96-2.2-1.18-1.35-1.85-3.24-1.85-5.33 0-2.29 0.53-4.17 1.62-5.46 1.1-1.3 2.78-2.04 5.19-2.04zm-128.05 0.12c0.34 0 1.41 0 2.37 0.46 0.97 0.46 1.84 1.34 1.84 3.25 0 1.9-1 2.81-2.17 3.31-1.16 0.49-2.48 0.52-2.98 0.52-0.83 0-1.42-0.12-1.57-0.14v-7.16c1.21-0.21 2.51-0.24 2.51-0.24zm34.35 1.73l2.96 6.99h-6.06l3.1-6.99z" />
</svg>