<?xml version="1.0" encoding="utf-8"?>
<svg version="1.1" xmlns:cc="http://creativecommons.org/ns#" xmlns:dc="http://purl.org/dc/elements/1.1/" xmlns:rdf="http://www.w3.org/1999/02/22-rdf-syntax-ns#" xmlns="http://www.w3.org/2000/svg" xmlns:xlink="http://www.w3.org/1999/xlink" x="0px" y="0px" viewBox="0 0 1024 768" xml:space="preserve">

 
 <defs id="defs737215">
  <linearGradient id="e834e160-b674-4ffd-b48b-09e63662242c" y2="100" gradientUnits="userSpaceOnUse" x2="109.23" gradientTransform="matrix(.9 0 0 .9 522.89 303.18)" y1="100" x1="91.232">
   <stop id="stop46" stop-opacity=".9" offset="0"/>
   <stop id="stop48" stop-opacity=".65014" offset=".27762"/>
   <stop id="stop50" stop-opacity=".29272" offset=".67475"/>
   <stop id="stop52" stop-opacity="0" offset="1"/>
  </linearGradient>
 </defs>
 <g id="logo-group" transform="translate(-.015870 -3.97) scale(1)">
  <path id="path737219" style="font-variant-ligatures:none" d="m404.46 536.54c-5.568 0-8.736-3.432-8.736-7.704 0-4.752 2.448-7.728 7.896-7.728 0.91199 0 2.952 0.072 5.376 1.128l0.36001-1.08c-3.096-0.84-4.392-0.864-6.12-0.864-5.52 0-8.952 3.84-8.952 8.544s2.904 8.52 9.888 8.52c3.456 0 6.24-1.392 6.24-1.392l-0.432-0.984c-1.128 0.888-3.72 1.56-5.52 1.56z" stroke="#3cb0b6" stroke-miterlimit="2" stroke-width="0.45" fill="#3cb0b6"/>
  <path id="path737221" style="font-variant-ligatures:none" d="m420.87 529.46c1.896-0.624 3.744-1.968 3.744-4.536 0-4.008-3.432-4.464-5.568-4.464h-4.872s0.36 1.008 0.36 2.64v11.52c0 1.656-0.36 2.64-0.36 2.64h2.112s-0.384-1.008-0.384-2.64v-4.656h2.088c0.408 0 0.888-0.048 1.416-0.12 0.696 0.984 4.68 6.528 6.384 7.416h2.784v-0.12s-2.496-0.264-7.704-7.68zm-4.968-0.408v-7.56c1.32-0.264 2.736-0.264 2.736-0.264 0.672 0 4.44-0.024 4.44 3.936s-4.368 4.056-5.376 4.056c-0.96 0-1.8-0.168-1.8-0.168z" stroke="#3cb0b6" stroke-miterlimit="2" stroke-width="0.45" fill="#3cb0b6"/>
  <path id="path737223" style="font-variant-ligatures:none" d="m433.85 536.22v-7.464s2.904-0.072 5.976 0.168l0.312-1.104s-4.104 0.192-6.288 0.12v-6.456c2.76-0.6 8.016 0 8.016 0l0.288-1.032h-10.032s0.36 0.984 0.36 2.64v11.52c0 1.632-0.36 2.64-0.36 2.64h10.152l0.336-1.248s-6 0.816-8.76 0.216z" stroke="#3cb0b6" stroke-miterlimit="2" stroke-width="0.45" fill="#3cb0b6"/>
  <path id="path737225" style="font-variant-ligatures:none" d="m459.45 534.62-5.76-13.584-0.24-0.576h-0.47999l-0.456 1.032-5.832 13.128c-0.72 1.632-1.56 2.64-1.56 2.64h1.992s-0.192-1.008 0.55199-2.64l1.512-3.384h7.44l1.44 3.384c0.696 1.632 0.504 2.64 0.504 2.64h2.352s-0.792-1.008-1.464-2.64zm-9.912-4.224 3.456-7.776 3.288 7.776z" stroke="#3cb0b6" stroke-miterlimit="2" stroke-width="0.45" fill="#3cb0b6"/>
  <path id="path737227" style="font-variant-ligatures:none" d="m473.76 521.49 0.312-1.032h-13.368l0.288 1.032s2.928-0.6 5.712 0v13.128c0 1.656-0.384 2.64-0.384 2.64h2.112s-0.36-1.008-0.36-2.64v-13.128c2.736-0.6 5.688 0 5.688 0z" stroke="#3cb0b6" stroke-miterlimit="2" stroke-width="0.45" fill="#3cb0b6"/>
  <path id="path737229" style="font-variant-ligatures:none" d="m479.37 534.62v-11.52c0-1.632 0.384-2.64 0.384-2.64h-2.112s0.36 1.008 0.36 2.64v11.52c0 1.632-0.36 2.64-0.36 2.64h2.112s-0.384-1.008-0.384-2.64z" stroke="#3cb0b6" stroke-miterlimit="2" stroke-width="0.45" fill="#3cb0b6"/>
  <path id="path737231" style="font-variant-ligatures:none" d="m498.28 520.46h-1.752s-0.024 1.008-0.648 2.64l-4.848 12.048-4.824-12.048c-0.672-1.632-0.696-2.64-0.696-2.64h-2.112s0.768 1.008 1.44 2.64l5.52 13.752 0.144 0.408h0.672l0.336-0.888 5.328-13.272c0.672-1.656 1.44-2.64 1.44-2.64z" stroke="#3cb0b6" stroke-miterlimit="2" stroke-width="0.45" fill="#3cb0b6"/>
  <path id="path737233" style="font-variant-ligatures:none" d="m503.65 536.22v-7.464s2.904-0.072 5.976 0.168l0.312-1.104s-4.104 0.192-6.288 0.12v-6.456c2.76-0.6 8.016 0 8.016 0l0.288-1.032h-10.032s0.36 0.984 0.36 2.64v11.52c0 1.632-0.36 2.64-0.36 2.64h10.152l0.336-1.248s-6 0.816-8.76 0.216z" stroke="#3cb0b6" stroke-miterlimit="2" stroke-width="0.45" fill="#3cb0b6"/>
  <path id="path737235" style="font-variant-ligatures:none" d="m525.52 523.94c0-1.944 2.376-2.832 3.864-2.832 1.944 0 3.72 1.2 3.72 1.2l0.144-0.072 0.12-1.104s-1.536-0.84-3.624-0.84c-4.224 0-5.448 2.52-5.448 4.032 0 4.992 8.64 4.464 8.64 8.904 0 1.944-1.656 3.312-4.176 3.312-3.576 0-4.224-2.448-4.224-2.448l-0.192-0.048-0.288 2.112s1.464 1.2 4.344 1.2c3.84 0 5.904-2.04 5.904-4.704 0-4.752-8.784-4.032-8.784-8.712z" stroke="#3cb0b6" stroke-miterlimit="2" stroke-width="0.45" fill="#3cb0b6"/>
  <path id="path737237" style="font-variant-ligatures:none" d="m546.69 520.34c-5.184 0-8.472 3.792-8.472 8.496s3.12 8.52 8.472 8.52c4.704 0 8.472-3.816 8.472-8.52s-2.856-8.496-8.472-8.496zm-7.032 8.496c0-4.656 2.112-7.728 7.032-7.728 4.416 0 7.032 3.456 7.032 7.728s-2.328 7.752-7.032 7.752c-4.296 0-7.032-3.48-7.032-7.752z" stroke="#3cb0b6" stroke-miterlimit="2" stroke-width="0.45" fill="#3cb0b6"/>
  <path id="path737239" style="font-variant-ligatures:none" d="m569.41 536.54c-5.568 0-8.736-3.432-8.736-7.704 0-4.752 2.448-7.728 7.896-7.728 0.912 0 2.952 0.072 5.376 1.128l0.36-1.08c-3.096-0.84-4.392-0.864-6.12-0.864-5.52 0-8.952 3.84-8.952 8.544s2.904 8.52 9.888 8.52c3.456 0 6.24-1.392 6.24-1.392l-0.432-0.984c-1.128 0.888-3.72 1.56-5.52 1.56z" stroke="#3cb0b6" stroke-miterlimit="2" stroke-width="0.45" fill="#3cb0b6"/>
  <path id="path737241" style="font-variant-ligatures:none" d="m580.85 534.62v-11.52c0-1.632 0.384-2.64 0.384-2.64h-2.112s0.36 1.008 0.36 2.64v11.52c0 1.632-0.36 2.64-0.36 2.64h2.112s-0.384-1.008-0.384-2.64z" stroke="#3cb0b6" stroke-miterlimit="2" stroke-width="0.45" fill="#3cb0b6"/>
  <path id="path737243" style="font-variant-ligatures:none" d="m588.07 536.22v-7.464s2.904-0.072 5.976 0.168l0.312-1.104s-4.104 0.192-6.288 0.12v-6.456c2.76-0.6 8.016 0 8.016 0l0.288-1.032h-10.032s0.36 0.984 0.36 2.64v11.52c0 1.632-0.36 2.64-0.36 2.64h10.152l0.336-1.248s-6 0.816-8.76 0.216z" stroke="#3cb0b6" stroke-miterlimit="2" stroke-width="0.45" fill="#3cb0b6"/>
  <path id="path737245" style="font-variant-ligatures:none" d="m612.28 521.49 0.31201-1.032h-13.368l0.288 1.032s2.928-0.6 5.712 0v13.128c0 1.656-0.38399 2.64-0.38399 2.64h2.112s-0.36-1.008-0.36-2.64v-13.128c2.736-0.6 5.688 0 5.688 0z" stroke="#3cb0b6" stroke-miterlimit="2" stroke-width="0.45" fill="#3cb0b6"/>
  <path id="path737247" style="font-variant-ligatures:none" d="m629.72 520.46h-1.728s-0.288 1.008-1.44 2.64l-4.56 6.648-4.056-6.648c-1.008-1.632-1.248-2.64-1.248-2.64h-2.112s0.98401 1.008 1.968 2.64l4.512 7.416v4.104c0 1.632-0.36 2.64-0.36 2.64h2.112s-0.36-0.984-0.36-2.64v-4.104l5.088-7.416c1.128-1.632 2.184-2.64 2.184-2.64z" stroke="#3cb0b6" stroke-miterlimit="2" stroke-width="0.45" fill="#3cb0b6"/>
  <path id="path27" style="font-variant-ligatures:normal" d="m299.04 404.5c0.0352 0.50548 0.0114 1.1472-0.0128 1.7489-0.0525 0.6159-0.10678 1.2294-0.22346 1.8482-0.21753 1.2312-0.56206 2.4668-1.0624 3.6267-0.98415 2.3337-2.4785 4.354-4.1364 5.922-1.6607 1.5848-3.4726 2.774-5.2939 3.6925-3.6596 1.8263-7.378 2.701-11.058 3.001-0.92175 0.0776-1.8389 0.10009-2.7587 0.10689-0.99448-0.0134-1.9909-0.0518-2.9861-0.17381-1.9905-0.21577-3.9683-0.68302-5.888-1.3606-3.8261-1.3787-7.4553-3.7123-10.225-7.119-1.3845-1.6919-2.5396-3.6554-3.3376-5.8045-0.8053-2.1472-1.1949-4.486-1.1738-6.7902h13.935c0.0688 1.239 0.52294 2.4214 1.5005 3.567 0.97515 1.123 2.4256 2.1186 4.1104 2.7209 0.84793 0.2896 1.7413 0.50977 2.6684 0.60271 0.46076 0.0602 0.9323 0.0681 1.4034 0.0793 0.54624-0.009 1.0967-0.0193 1.6361-0.069 2.1584-0.15788 4.2565-0.6504 5.8614-1.4309 0.80442-0.37991 1.468-0.82793 1.9389-1.2591 0.48296-0.43386 0.75388-0.83112 0.92812-1.1948 0.0943-0.18215 0.14107-0.37134 0.18941-0.57964 0.0514-0.23379 0.0681-0.381 0.0701-0.78201 0.0211-0.80463-0.0973-1.3789-0.2061-1.8433-0.14942-0.4478-0.28499-0.87012-0.71741-1.3842-0.40715-0.51163-1.0953-1.0805-1.9822-1.6202-1.7868-1.103-4.2895-2.0299-7.0009-2.7723-2.729-0.77037-5.6885-1.4636-8.8798-2.5616-1.5998-0.55261-3.27-1.2136-5.0005-2.1673-1.7185-0.94669-3.5536-2.2114-5.1515-4.0312-1.5941-1.808-2.834-4.1807-3.3713-6.5074-0.28893-1.163-0.43989-2.3116-0.48559-3.3994-0.0585-1.0866-0.0268-2.2219 0.13469-3.3912 0.29509-2.3275 1.1881-4.798 2.6128-6.8639 1.4111-2.083 3.2594-3.7167 5.1376-4.8867 1.6409-1.0032 3.2838-1.7196 4.9118-2.2559 2.1544-0.70972 4.2816-1.0949 6.3356-1.3233 0.90615-0.0948 1.8044-0.15567 2.6934-0.18204l0.67673-0.0164 0.75674 0.0112c0.50427 0.008 1.0103 0.0477 1.5152 0.0835 2.0204 0.18128 4.037 0.5948 5.9849 1.2768 3.8953 1.343 7.5397 3.748 10.278 7.1772 2.7659 3.3775 4.4569 7.9571 4.3921 12.527h-13.94c-0.0367-1.3131-0.5379-2.5327-1.459-3.7098-0.93494-1.1562-2.3418-2.1509-3.9687-2.7613-0.81431-0.30707-1.6882-0.50317-2.5862-0.60557-0.2261-0.0163-0.4511-0.0448-0.68006-0.0501l-0.34278-0.0132-0.42297-0.007c-0.57744-0.009-1.1448 0.005-1.6991 0.0382-2.212 0.11623-4.2552 0.626-5.4965 1.3228-0.63567 0.33256-1.0485 0.66644-1.3254 0.98702-0.2795 0.32321-0.48164 0.65995-0.61436 1.2327-0.14634 0.52647-0.14788 1.4693-0.053 1.9505 0.0846 0.54349 0.22698 0.85386 0.52009 1.2861 0.18281 0.24236 0.45922 0.52185 0.81474 0.80991 0.25093 0.20303 0.53547 0.40979 0.87956 0.61282 0.15666 0.0933 0.32871 0.18512 0.50076 0.27686 0.0382 0.0211 0.0758 0.0424 0.11404 0.0631 0.28037 0.14612 0.5803 0.28961 0.89407 0.43078 0.11558 0.0513 0.23071 0.10273 0.34805 0.15073 0.37683 0.16161 0.76553 0.32091 1.1755 0.47384 2.3414 0.86133 5.0876 1.5671 8.0104 2.3594 2.9301 0.82925 6.0932 1.562 9.5535 3.1067 1.7192 0.79618 3.5321 1.8171 5.26 3.3227 1.7248 1.4737 3.31 3.5079 4.2941 5.7643 1.0094 2.2506 1.4206 4.6107 1.4977 6.7358z" class="c1" stroke-miterlimit="2" stroke-width="0" fill="#e3d791"/>
  <path id="path30" style="font-variant-ligatures:normal" d="m350.92 361.25c-1.5444-0.30586-3.1454-0.46978-4.7885-0.46978v-0.00022h-16.821v0.00022h-14.39v64.8h14.386v-21.56h16.821c12.45 0 22.579-9.1698 22.579-21.62-0.00001-10.807-7.6337-19.138-17.79-21.15zm-4.7885 30.303h-16.821v-18.305h16.821c4.518 0 8.1929 4.6344 8.1929 9.1524 0 3.8595-2.6851 7.7938-6.2833 8.8617-0.61391 0.18226-1.2511 0.29091-1.9096 0.29091z" class="c1" stroke-miterlimit="2" stroke-width="0" fill="#e3d791"/>
  <path id="path33" style="font-variant-ligatures:normal" d="m440.21 425.67h-16.255l-19.238-34.63-19.228 34.63h-17.262l27.859-50.166 8.1325-14.634 8.6309 15.536z" class="c1" stroke-miterlimit="2" stroke-width="0" fill="#e3d791"/>
  <path id="path36" style="font-variant-ligatures:normal" d="m504.72 382.4c0-10.807-7.6337-19.138-17.79-21.15-0.00022 0-0.00022-0.00011-0.00022-0.00011-1.5444-0.30586-3.1454-0.46978-4.7885-0.46978v-0.00022h-16.821v0.00022h-14.386v64.8h14.386v-21.56h9.5348l17.081 21.56h16.304l-18.135-22.89c8.5309-2.9677 14.615-10.642 14.615-20.29zm-22.579 9.1526h-16.821v-18.305h16.821c4.518 0 8.193 4.6344 8.193 9.1524 0 3.8595-2.6851 7.7938-6.2833 8.8617-0.61391 0.18226-1.2511 0.29091-1.9096 0.29091z" class="c1" stroke-miterlimit="2" stroke-width="0" fill="#e3d791"/>
  <path id="path39" style="font-variant-ligatures:normal" d="m534.59 360.78v64.795h-14.385v-64.796zm40.134 0.002h-17.262l-15.027 21.088-7.8445 11.019 9.4173 11.009 18.537 21.683h17.262l-27.954-32.692z" class="c1" stroke-miterlimit="2" stroke-width="0" fill="#e3d791"/>
  <rect id="rect42" style="font-variant-ligatures:normal" height="64.799" width="14.386" stroke-miterlimit="2" y="360.78" x="590.62" stroke-width="0" class="c2" fill="#3cb0b6"/>
  <path id="path44" style="font-variant-ligatures:normal" d="m605 373.25v-12.468l30.168-0.00001v12.468zm30.168 52.332v-12.468l-30.168 0.00001v12.468zm-5.0106-25.968v-12.468l-25.157 0.00002v12.468z" class="c1" stroke-miterlimit="2" stroke-width="0" fill="#e3d791"/>
  <path id="path55" opacity="0.62" style="font-variant-ligatures:normal" d="m605 373.25v-12.468l30.168-0.00001v12.468zm30.168 52.332v-12.468l-30.168 0.00001v12.468zm-5.0106-25.968v-12.468l-25.157 0.00002v12.468z" class="highlight" stroke-miterlimit="2" stroke-width="0" fill="url(#e834e160-b674-4ffd-b48b-09e63662242c)"/>
  <polygon id="polygon58" style="font-variant-ligatures:normal" transform="matrix(.9 0 0 .9 582.54 303.18)" class="c1" points="125.41 122.15 90.575 122.15 90.575 64 74.592 64 74.592 136 90.575 136 90.575 136 125.41 136" stroke-miterlimit="2" stroke-width="0" fill="#e3d791"/>
  <path id="path61" style="font-variant-ligatures:normal" d="m773.15 425.67h-16.255l-19.238-34.63-19.228 34.63h-17.262l27.859-50.166 8.1325-14.634 8.6309 15.536z" class="c1" stroke-miterlimit="2" stroke-width="0" fill="#e3d791"/>
  <path id="path64" style="font-variant-ligatures:normal" d="m346.66 434.56h18.986v12.468h-18.986v52.332h-14.39v-52.34h-18.986v-12.468h18.986v-0.00033h14.386v0.00033z" class="c1" stroke-miterlimit="2" stroke-width="0" fill="#e3d791"/>
  <path id="path67" style="font-variant-ligatures:normal" d="m434.73 499.44h-16.255l-19.238-34.63-19.228 34.63h-17.262l27.859-50.166 8.1325-14.634 8.6309 15.536z" class="c1" stroke-miterlimit="2" stroke-width="0" fill="#e3d791"/>
  <polygon id="polygon70" style="font-variant-ligatures:normal" transform="matrix(.9 0 0 .9 378.24 376.96)" class="c1" points="125.41 122.15 90.575 122.15 90.575 64 74.592 64 74.592 136 90.575 136 90.575 136 125.41 136" stroke-miterlimit="2" stroke-width="0" fill="#e3d791"/>
  <path id="path73" style="font-variant-ligatures:normal" d="m517.09 434.56v64.795h-14.385v-64.796zm40.134 0.002h-17.262l-15.027 21.088-7.8444 11.019 9.4173 11.009 18.537 21.683h17.262l-27.954-32.692z" class="c1" stroke-miterlimit="2" stroke-width="0" fill="#e3d791"/>
  <path id="path76" style="font-variant-ligatures:normal" d="m573.12 434.56h14.386v64.8h-14.386z" class="c1" stroke-miterlimit="2" stroke-width="0" fill="#e3d791"/>
  <path id="path79" style="font-variant-ligatures:normal" d="m618.68 486.89h30.173v12.47h-44.561v-64.809h44.56v12.469l-30.172 0.00011v13.898h25.162v12.47h-25.162z" class="c1" stroke-miterlimit="2" stroke-width="0" fill="#e3d791"/>
  <path id="path82" style="font-variant-ligatures:normal" d="m708.98 478.28c0.0352 0.50548 0.0114 1.1472-0.0128 1.7489-0.0525 0.6159-0.10678 1.2294-0.22346 1.8482-0.21753 1.2312-0.56206 2.4668-1.0624 3.6267-0.98416 2.3337-2.4785 4.354-4.1364 5.922-1.6607 1.5848-3.4726 2.774-5.2939 3.6925-3.6596 1.8263-7.378 2.701-11.058 3.001-0.92175 0.0776-1.8389 0.10009-2.7587 0.10689-0.99448-0.0134-1.9909-0.0518-2.9861-0.17381-1.9905-0.21577-3.9683-0.68302-5.888-1.3606-3.8261-1.3787-7.4553-3.7123-10.225-7.119-1.3845-1.6919-2.5396-3.6554-3.3376-5.8045-0.8053-2.1472-1.1949-4.486-1.1738-6.7902h13.935c0.0688 1.239 0.52295 2.4214 1.5005 3.567 0.97515 1.123 2.4256 2.1186 4.1104 2.7209 0.84793 0.2896 1.7413 0.50977 2.6684 0.60271 0.46076 0.0602 0.9323 0.0681 1.4034 0.0793 0.54623-0.009 1.0966-0.0193 1.6361-0.069 2.1584-0.15788 4.2565-0.6504 5.8614-1.4309 0.80442-0.37991 1.468-0.82793 1.9389-1.2591 0.48296-0.43386 0.75388-0.83112 0.92812-1.1948 0.0943-0.18215 0.14107-0.37134 0.18941-0.57964 0.0514-0.23379 0.0681-0.381 0.0701-0.78201 0.0211-0.80463-0.0973-1.3789-0.2061-1.8433-0.14942-0.4478-0.28499-0.87012-0.71741-1.3842-0.40715-0.51163-1.0953-1.0805-1.9822-1.6202-1.7868-1.103-4.2895-2.0299-7.0009-2.7723-2.729-0.77037-5.6885-1.4636-8.8798-2.5616-1.5998-0.55261-3.27-1.2136-5.0005-2.1673-1.7185-0.94669-3.5536-2.2114-5.1515-4.0312-1.5941-1.808-2.834-4.1807-3.3713-6.5074-0.28893-1.163-0.43989-2.3116-0.48559-3.3994-0.0584-1.0866-0.0268-2.2219 0.13469-3.3911 0.2951-2.3275 1.1881-4.798 2.6128-6.8639 1.4111-2.083 3.2594-3.7167 5.1376-4.8867 1.6409-1.0032 3.2838-1.7196 4.9118-2.2559 2.1544-0.70972 4.2816-1.0949 6.3356-1.3233 0.90615-0.0948 1.8044-0.15567 2.6934-0.18204l0.67673-0.0164 0.75674 0.0112c0.50427 0.008 1.0103 0.0477 1.5152 0.0835 2.0204 0.18128 4.037 0.5948 5.9849 1.2768 3.8953 1.343 7.5397 3.748 10.278 7.1772 2.7659 3.3775 4.4569 7.9571 4.3921 12.527h-13.935c-0.0367-1.3131-0.5379-2.5327-1.459-3.7098-0.93494-1.1562-2.3418-2.1509-3.9687-2.7613-0.81431-0.30707-1.6882-0.50317-2.5862-0.60557-0.2261-0.0163-0.4511-0.0448-0.68006-0.0501l-0.34277-0.0132-0.42298-0.007c-0.57744-0.009-1.1448 0.005-1.6991 0.0382-2.212 0.11623-4.2552 0.626-5.4965 1.3228-0.63567 0.33256-1.0485 0.66644-1.3254 0.98702-0.27949 0.32321-0.48164 0.65995-0.61436 1.2327-0.14634 0.52647-0.14788 1.4693-0.053 1.9505 0.0846 0.54349 0.22698 0.85386 0.52009 1.2861 0.18281 0.24236 0.45922 0.52185 0.81474 0.80991 0.25093 0.20303 0.53547 0.40979 0.87956 0.61282 0.15666 0.0933 0.32871 0.18512 0.50076 0.27686 0.0382 0.0211 0.0758 0.0424 0.11404 0.0631 0.28037 0.14612 0.5803 0.28961 0.89407 0.43078 0.11558 0.0513 0.23072 0.10273 0.34805 0.15073 0.37683 0.16161 0.76553 0.32091 1.1755 0.47384 2.3414 0.86133 5.0876 1.5671 8.0104 2.3594 2.9301 0.82925 6.0932 1.562 9.5535 3.1067 1.7191 0.79618 3.5321 1.8171 5.26 3.3227 1.7248 1.4737 3.31 3.5079 4.2941 5.7643 1.0094 2.2506 1.4206 4.6107 1.4977 6.7358z" class="c1" stroke-miterlimit="2" stroke-width="0" fill="#e3d791"/>
  <path id="icon" stroke-width="0.645" fill="#3cb0b6" d="m539.31 238.37c-0.006-0.006 0.16101 0.33281 0.37117 0.75349 0.21015 0.42102 0.48485 1.0138 0.61037 1.3179 0.12551 0.30411 0.31379 0.78826 0.41815 1.0755 0.10472 0.28725 0.26502 0.76387 0.35683 1.059 0.0915 0.29515 0.23848 0.8198 0.32634 1.1655 0.0882 0.34606 0.22378 0.9435 0.3016 1.3283 0.0778 0.38444 0.18218 0.96144 0.23167 1.2814 0.0498 0.32024 0.13018 0.94176 0.1786 1.3807 0.0488 0.43931 0.10579 1.0407 0.12695 1.3366 0.0212 0.29586 0.0542 0.90913 0.0732 1.3628 0.0186 0.45365 0.0344 1.2039 0.0344 1.6676 0.00036 0.46334-0.0154 1.2785-0.0344 1.811-0.0194 0.53255-0.052 1.2505-0.0724 1.5959-0.0204 0.34499-0.0696 1.0472-0.10901 1.56-0.0394 0.51282-0.10437 1.2713-0.14381 1.6855-0.0398 0.41421-0.12875 1.2774-0.19796 1.9186-0.0692 0.64085-0.24673 2.1822-0.39448 3.4248s-0.33173 2.8241-0.40919 3.5145c-0.0771 0.69034-0.1811 1.683-0.23095 2.2055-0.0502 0.52251-0.11547 1.2648-0.1456 1.6496-0.0301 0.38444-0.0785 1.1189-0.10759 1.6317-0.0294 0.51283-0.0724 1.6884-0.0958 2.6118-0.033 1.3-0.033 2.0542 0 3.3352 0.0237 0.91087 0.0588 1.9462 0.0782 2.3013 0.0194 0.35504 0.0602 1.0085 0.0904 1.4524 0.0301 0.44361 0.0947 1.2426 0.14345 1.7752 0.0488 0.53255 0.12982 1.3312 0.18003 1.7752 0.0502 0.44361 0.14703 1.2182 0.21589 1.7214 0.0685 0.50278 0.18181 1.2774 0.25175 1.7214 0.0703 0.44361 0.19186 1.1698 0.27039 1.6138 0.0785 0.44361 0.22271 1.2082 0.32061 1.6984 0.0975 0.49059 0.26753 1.2975 0.37726 1.7931 0.1101 0.49596 0.34356 1.4743 0.51892 2.1747 0.17537 0.70002 0.43357 1.6844 0.5738 2.1876 0.14057 0.50278 0.39806 1.3825 0.57271 1.9545s0.47338 1.508 0.66384 2.08c0.19043 0.57199 0.51282 1.4998 0.71614 2.0621 0.2037 0.56196 0.52681 1.4255 0.71866 1.9186 0.19186 0.4931 0.50601 1.2756 0.69821 1.7393 0.19222 0.46334 0.49023 1.1655 0.66235 1.56 0.17214 0.39448 0.49812 1.1207 0.7244 1.6138 0.22629 0.4931 0.70757 1.4936 1.069 2.2234 0.36185 0.72981 0.83812 1.6658 1.0586 2.08 0.22055 0.41421 0.61181 1.1322 0.86966 1.5959 0.25784 0.46334 0.68279 1.2085 0.94498 1.6557 0.2618 0.44719 0.63261 1.0687 0.82341 1.3807 0.19079 0.31236 0.4845 0.78536 0.65235 1.0519 0.16784 0.26609 0.5157 0.80689 0.77284 1.2014 0.25678 0.39448 0.69319 1.0479 0.9697 1.4524 0.27613 0.40416 0.76065 1.0981 1.0766 1.5421 0.31594 0.44361 0.89584 1.2336 1.2882 1.7547 0.39269 0.52143 1.0296 1.3444 1.4154 1.829 0.38624 0.48485 0.90442 1.1232 1.1515 1.4191 0.24709 0.29586 0.69215 0.82018 0.98833 1.1655 0.29623 0.34499 0.82947 0.95034 1.1849 1.3448 0.35503 0.39448 0.87862 0.96718 1.1627 1.2731 0.28438 0.30555 1.172 1.21 1.9724 2.0094 0.80076 0.79935 1.8268 1.7942 2.2805 2.2106 0.45365 0.41636 1.1315 1.0274 1.5062 1.3577 0.37476 0.33029 1.0124 0.8772 1.4166 1.215 0.40453 0.33817 0.90481 0.75239 1.1117 0.92054 0.20729 0.16819 0.67532 0.54008 1.04 0.82696 0.36508 0.28654 1.0428 0.80328 1.5062 1.1483 0.46369 0.34534 1.0687 0.78858 1.3448 0.98549 0.27614 0.19689 0.80973 0.56949 1.186 0.82806 0.3762 0.25856 0.96866 0.65661 1.3165 0.88468 0.34786 0.22772 0.93848 0.60714 1.3129 0.84275 0.37404 0.23562 1.0966 0.67745 1.6062 0.98118 0.50924 0.3041 1.3538 0.79109 1.8763 1.0827 0.83811 0.46728 1.1956 0.63691 3.0285 1.4391 1.1429 0.49991 2.0804 0.90584 2.0832 0.90158 0.003-0.005-0.22055-0.3952-0.49596-0.86856-0.27579-0.47337-0.77891-1.361-1.1186-1.9724-0.33925-0.61144-0.81948-1.4911-1.0669-1.9545-0.24708-0.46369-0.72298-1.3753-1.0572-2.0262-0.33423-0.65087-0.90158-1.7852-1.2605-2.5207-0.35898-0.73556-0.88004-1.8246-1.158-2.4207-0.27757-0.59603-0.69034-1.4951-0.91661-1.9979-0.22628-0.50314-0.54904-1.2294-0.71724-1.6138-0.16855-0.3848-0.49884-1.1731-0.73407-1.7519-0.23562-0.57917-0.75885-1.8942-1.163-2.9228-0.40381-1.0285-0.82663-2.1037-0.93925-2.3888l-0.20442-0.51856-1.0759-0.36257c-0.59172-0.19939-1.3179-0.45616-1.6138-0.57092-0.29586-0.1144-0.76206-0.30411-1.0364-0.42102-0.27398-0.11691-0.87107-0.38946-1.3269-0.60607-0.45544-0.21661-1.1268-0.55299-1.4919-0.74774-0.36472-0.19474-0.88113-0.47841-1.1476-0.63046-0.2661-0.15241-0.82302-0.47876-1.2372-0.7255-0.41421-0.24673-1.6324-0.99839-2.7076-1.6697-1.0748-0.67131-2.2163-1.3793-2.5361-1.5726-0.32025-0.19366-0.87682-0.51964-1.2372-0.7244-0.36078-0.20477-0.9299-0.51785-1.2652-0.69538-0.3353-0.17751-0.86784-0.44397-1.1834-0.59243-0.31559-0.14812-0.78716-0.35934-1.0479-0.46908-0.26071-0.10974-0.69647-0.28009-0.96827-0.37871-0.27184-0.0986-0.62329-0.21982-0.7811-0.26932-0.15779-0.0495-0.43213-0.13089-0.60965-0.1811l-0.32276-0.0918 0.27506 0.0179c0.1517 0.01 0.42604 0.051 0.60965 0.0915 0.18398 0.0405 0.54977 0.14632 0.81264 0.23526 0.26323 0.0889 0.73124 0.26932 1.04 0.40094 0.30913 0.13161 1.1189 0.51784 1.7992 0.85785 0.68066 0.33997 1.7375 0.89048 2.349 1.2229 0.61144 0.3328 1.8864 1.0328 2.8331 1.5564 0.94673 0.52323 2.1409 1.1774 2.6538 1.4538 0.51283 0.2765 1.3926 0.73769 1.9545 1.0257 0.56232 0.28761 1.3531 0.67854 1.7572 0.86856 0.40452 0.19007 0.97724 0.45043 1.2731 0.57917 0.29586 0.12839 0.77213 0.32634 1.0579 0.44003 0.28618 0.11368 0.72982 0.28044 0.98621 0.3701 0.25641 0.09 0.65196 0.22019 0.87861 0.28976 0.22701 0.0696 0.51498 0.15242 0.6405 0.18433 0.12552 0.0319 0.23633 0.0495 0.24637 0.0395 0.0104-0.0101-0.0656-0.25713-0.16891-0.54905-0.10292-0.29155-0.30841-0.87752-0.45616-1.3014-0.14811-0.42425-0.51032-1.4811-0.80548-2.349-0.29478-0.86785-0.79503-2.3687-1.111-3.3352-0.31631-0.96647-0.8625-2.661-1.214-3.7655-0.35181-1.1046-0.96253-3.0411-1.3574-4.3034-0.3952-1.2623-1.1157-3.5701-1.6012-5.1283-0.48558-1.5582-1.1871-3.8014-1.5589-4.9848-0.37189-1.1834-0.76639-2.4505-0.87649-2.8152-0.1101-0.36508-0.37799-1.2122-0.59495-1.8828-0.21697-0.6706-0.39484-1.2379-0.39484-1.2605 0-0.023-0.11692-0.0757-0.26-0.11727-0.14309-0.0419-0.70434-0.22126-1.2469-0.39878-0.54295-0.17752-1.342-0.46585-1.7752-0.64086-0.43357-0.175-0.9575-0.39376-1.1648-0.48665-0.20692-0.0925-0.79613-0.37547-1.309-0.6283-0.51283-0.25318-1.2641-0.64513-1.6694-0.87178-0.40524-0.22629-1.1235-0.64193-1.5959-0.92383-0.4723-0.28152-1.6575-1.012-2.634-1.6235-0.97615-0.61108-2.1058-1.3126-2.5103-1.5589-0.40417-0.24601-1.0257-0.61252-1.3807-0.81405-0.35604-0.19673-0.92622-0.50955-1.2687-0.6908-0.34249-0.18124-0.89784-0.45859-1.2345-0.61662-0.33604-0.15802-0.79851-0.36571-1.0268-0.46117-0.22897-0.0948-0.63339-0.25413-0.89977-0.35346-0.26574-0.0993-0.67532-0.23865-0.90945-0.3096-0.23414-0.0709-0.52955-0.1548-0.65597-0.18641-0.12659-0.0319-0.22234-0.0653-0.21301-0.0746 0.009-0.009 0.15922 0.001 0.33315 0.024 0.17357 0.0229 0.4533 0.0731 0.62078 0.11188 0.16783 0.0391 0.45831 0.1205 0.64551 0.18147 0.1872 0.061 0.53435 0.18827 0.77103 0.28295 0.23669 0.0947 0.66061 0.27864 0.94248 0.40846 0.28152 0.13018 1.0239 0.49418 1.6496 0.8087 0.62543 0.31487 1.517 0.77716 1.9803 1.0271 0.4637 0.24996 1.8032 0.98762 2.9766 1.6389 1.1738 0.65126 2.5939 1.4327 3.1558 1.7368 0.56232 0.30411 1.6274 0.85495 2.3669 1.2247 0.73982 0.36938 1.6676 0.81445 2.0621 0.98834 0.39448 0.17429 0.97866 0.41922 1.2979 0.54474 0.31953 0.12516 0.79006 0.29945 1.0454 0.38695 0.2557 0.0875 0.69215 0.22306 0.9704 0.30088 0.27793 0.0778 0.50566 0.13018 0.50566 0.11619 0-0.014-0.11943-0.37906-0.26538-0.81121-0.14706-0.43151-0.44376-1.2939-0.66113-1.915-0.21736-0.62113-0.53986-1.5332-0.71659-2.0259-0.17738-0.49343-0.49278-1.3603-0.70176-1.926-0.20963-0.56631-0.58244-1.5557-0.82947-2.1988-0.24704-0.64371-0.66113-1.6976-0.91977-2.342-0.25865-0.64436-0.68757-1.6886-0.95267-2.3194-0.26574-0.63146-0.70563-1.648-0.97782-2.2594-0.27219-0.61146-0.65919-1.4667-0.86107-1.9008-0.20124-0.43409-0.68628-1.4345-1.0772-2.2233-0.39152-0.78883-0.89139-1.7725-1.112-2.1866-0.22059-0.41344-0.6005-1.11-0.84495-1.548-0.24446-0.4386-0.64823-1.141-0.8972-1.5615-0.24961-0.42054-0.63984-1.063-0.86752-1.428-0.22773-0.36508-0.52538-0.83308-0.66132-1.04l-0.24709-0.37655 0.42497 0.43285c0.23382 0.23777 0.59925 0.64122 0.81263 0.89655 0.21338 0.25498 0.57595 0.71363 0.80548 1.0192 0.22988 0.30554 0.66203 0.92164 0.96073 1.3692 0.29873 0.44719 0.75348 1.1655 1.0106 1.5962 0.25713 0.43035 0.66274 1.1375 0.9012 1.5715 0.23884 0.43393 0.69821 1.3133 1.0214 1.9545 0.32276 0.64085 0.7642 1.5446 0.98118 2.0083 0.21732 0.4637 0.56411 1.2218 0.77103 1.6855 0.20728 0.46369 0.57021 1.2946 0.80651 1.8469 0.23669 0.55227 0.61933 1.4639 0.85101 2.0262 0.23167 0.56232 0.58706 1.4416 0.79006 1.9545 0.20262 0.51283 0.56554 1.4488 0.80619 2.08 0.24027 0.63117 0.68421 1.8092 0.9862 2.6179 0.30196 0.8087 0.88043 2.3773 1.2857 3.4854 0.40524 1.1081 1.3688 3.763 2.141 5.8993 0.77213 2.1363 1.7099 4.7234 2.0836 5.749 0.37368 1.0257 0.94712 2.591 1.2745 3.4786 0.32741 0.88758 0.60248 1.6217 0.61108 1.6317 0.009 0.01 0.0667-0.0409 0.12875-0.1126 0.0624-0.0717 0.28438-0.32993 0.49382-0.57379 0.20907-0.24387 0.55263-0.66706 0.76316-0.94067 0.21052-0.27363 0.52467-0.69325 0.69822-0.93241 0.17321-0.2392 0.46118-0.64552 0.63941-0.90262 0.17824-0.25749 0.54977-0.81405 0.82521-1.2372 0.27543-0.42353 0.76742-1.1974 1.0934-1.72 0.32563-0.52287 1.2136-1.9832 1.9724-3.2455 0.75923-1.2623 1.5145-2.5132 1.678-2.7793 0.16388-0.26646 0.6369-1.0167 1.0515-1.6676 0.41457-0.65087 0.86714-1.3531 1.0056-1.56 0.13843-0.20728 0.35683-0.52179 0.4845-0.69931 0.12802-0.17752 0.36292-0.48414 0.52143-0.68138 0.15887-0.19724 0.44254-0.51784 0.63045-0.71221 0.18792-0.19437 0.4386-0.42962 0.55694-0.52287 0.11835-0.0932 0.23956-0.18325 0.26897-0.20011 0.0294-0.0169-0.0843 0.11512-0.25319 0.29336-0.16855 0.17823-0.44074 0.48377-0.60463 0.67925-0.16353 0.19508-0.48593 0.60499-0.71653 0.91086-0.23023 0.30555-0.55729 0.75743-0.72692 1.0041-0.16962 0.24637-0.4931 0.73878-0.71904 1.0938-0.22593 0.35504-0.58025 0.92777-0.78787 1.2731-0.20728 0.34499-0.59531 1.0066-0.86211 1.4703-0.26681 0.46334-0.63798 1.1171-0.82482 1.4524-0.18649 0.33531-0.67493 1.2308-1.0855 1.9903-0.41026 0.75916-0.93925 1.7274-1.1759 2.1517-0.23669 0.42388-0.64764 1.134-0.91377 1.5779-0.26609 0.44362-0.66022 1.0687-0.87539 1.389-0.21553 0.31989-0.62974 0.90087-0.92093 1.291-0.2912 0.38982-0.88004 1.1594-1.3086 1.7099-0.53434 0.68603-0.77245 1.0188-0.75704 1.0579 0.0122 0.0312 0.21338 0.58132 0.44649 1.2225 0.2331 0.64085 0.68208 1.8673 0.99768 2.7255 0.31594 0.85785 0.77536 2.1004 1.0217 2.7614 0.24602 0.66061 0.71402 1.9032 1.04 2.7614 0.32634 0.85785 0.8345 2.1811 1.13 2.9407 0.2955 0.75917 0.79541 2.0262 1.1113 2.8152 0.31559 0.78896 0.74627 1.854 0.9568 2.3669 0.21051 0.51283 0.59028 1.4244 0.84346 2.0262 0.25319 0.60141 0.7097 1.6665 1.0149 2.3669 0.30519 0.70002 0.74091 1.6844 0.96789 2.1876 0.22701 0.50278 0.52466 1.1566 0.66132 1.4524 0.13663 0.29586 0.40021 0.86069 0.58562 1.2552 0.18505 0.39448 0.70183 1.4513 1.148 2.349 0.44576 0.89726 0.9851 1.9624 1.1978 2.3669 0.21266 0.40416 0.58921 1.1064 0.83669 1.56 0.24745 0.45365 0.64301 1.1637 0.87901 1.5779 0.23597 0.4142 0.60714 1.0515 0.82483 1.4165 0.21768 0.36472 0.5971 0.98621 0.84314 1.3807 0.24602 0.39448 0.7115 1.116 1.0346 1.6034 0.32311 0.48736 0.6014 0.89442 0.61826 0.90513 0.0172 0.0104 0.0735-0.20262 0.12516-0.47374 0.052-0.27112 0.23991-1.2595 0.41815-2.1962 0.17787-0.93706 0.48378-2.5749 0.67957-3.64 0.19545-1.0651 0.45329-2.4903 0.57307-3.1673 0.11942-0.67706 0.34464-1.9922 0.50064-2.9228 0.15564-0.9306 0.39699-2.4264 0.53577-3.3237 0.13915-0.89765 0.33352-2.1966 0.4325-2.8869 0.099-0.69035 0.26-1.8684 0.35791-2.6179 0.0983-0.74949 0.25138-2.0004 0.34032-2.7793 0.0889-0.77929 0.21051-1.909 0.27005-2.5103 0.0595-0.60177 0.14846-1.5701 0.19724-2.1517 0.0492-0.58205 0.12193-1.5421 0.16138-2.1338 0.0398-0.59173 0.0965-1.5524 0.12587-2.1352 0.0294-0.5824 0.0717-1.829 0.0943-2.7696 0.0301-1.2703 0.0301-2.1148 0.00036-3.28-0.0223-0.86352-0.0563-1.8522-0.076-2.1972-0.0197-0.34535-0.0602-0.94248-0.09-1.3269-0.0298-0.3848-0.095-1.0787-0.14488-1.5421-0.0498-0.4637-0.14703-1.2287-0.21588-1.7002-0.0689-0.47159-0.17358-1.1415-0.23311-1.4883-0.0591-0.34713-0.1725-0.96182-0.25175-1.366-0.0793-0.40452-0.21661-1.0662-0.30555-1.4703-0.0886-0.40452-0.27434-1.1852-0.41276-1.7354-0.13807-0.55013-0.35576-1.3653-0.48342-1.811-0.12732-0.44613-0.34572-1.1742-0.48486-1.6177-0.13914-0.44397-0.37404-1.154-0.52144-1.5779-0.14775-0.42425-0.37009-1.0454-0.49453-1.3807-0.12408-0.33531-0.37082-0.97292-0.54833-1.4166-0.17752-0.44397-0.4533-1.1103-0.61288-1.4811-0.15995-0.37046-0.44756-1.0159-0.63942-1.4345-0.19186-0.41816-0.5867-1.2365-0.87753-1.8182-0.29084-0.58205-0.73626-1.4373-0.98981-1.9007-0.25355-0.4637-0.62005-1.1171-0.81406-1.4524-0.19437-0.33531-0.57128-0.96466-0.83772-1.3986-0.26645-0.43393-0.72872-1.1602-1.0278-1.6138-0.29873-0.45365-0.75846-1.1315-1.0214-1.5062-0.26322-0.37476-0.75594-1.0526-1.0952-1.5062-0.33962-0.45365-0.84456-1.1103-1.1225-1.4592-0.27793-0.34857-0.71905-0.88939-0.98014-1.2014-0.26144-0.31164-0.64552-0.76065-0.85385-0.9973-0.20872-0.23669-0.62077-0.69647-0.9159-1.0221-0.29551-0.32527-0.98157-1.0414-1.5241-1.5908-0.54295-0.54976-1.3101-1.3007-1.7045-1.669-0.39448-0.36866-0.94318-0.87146-1.2193-1.1178-0.27614-0.24601-0.67957-0.6014-0.89655-0.78935-0.21696-0.18827-0.64444-0.55191-0.95034-0.80831-0.30555-0.25678-0.88649-0.73305-1.291-1.0583-0.40417-0.32563-1.0257-0.81799-1.3807-1.0942-0.35504-0.2765-1.0974-0.84095-1.6496-1.2548-0.55228-0.41384-1.3025-0.97079-1.6676-1.2372-0.36471-0.26645-1.1178-0.80941-1.6733-1.206-0.55514-0.39699-2.4917-1.7583-4.3034-3.0253-1.8079-1.279-3.7094-2.6142-4.2222-2.9792-0.51277-0.36507-1.2552-0.8972-1.6499-1.1836-0.39474-0.28573-1.2178-0.89268-1.8292-1.3487-0.61146-0.45602-1.4506-1.0933-1.8647-1.4171-0.41409-0.32314-1.003-0.79012-1.3087-1.0372-0.30573-0.24703-0.84624-0.69144-1.2016-0.98749-0.35475-0.29606-0.97589-0.82754-1.3803-1.1816-0.40506-0.35411-0.94493-0.8385-1.2016-1.0765-0.25671-0.238-0.77916-0.73143-1.161-1.0965-0.38313-0.36507-0.99588-0.97911-1.3629-1.3635-0.36701-0.38442-0.83786-0.88623-1.0456-1.1146-0.20833-0.22833-0.61339-0.68821-0.89913-1.0217-0.28702-0.33411-0.7282-0.86559-0.98169-1.1804-0.25284-0.31605-0.66435-0.84817-0.91461-1.1836-0.25026-0.3354-0.58437-0.79593-0.74239-1.0223-0.15803-0.22704-0.43667-0.63855-0.6192-0.91461-0.18254-0.27606-0.33669-0.50697-0.3425-0.51342z"/>
 </g>

</svg>